<?xml version="1.0" encoding="UTF-8"?>
<svg width="700pt" height="700pt" version="1.1" viewBox="0 0 700 700" xmlns="http://www.w3.org/2000/svg">
 <g>
  <path d="m571.57 560h-443.15c-32.199 0-58.426-26.203-58.426-58.426v-396.46c0-32.223 26.227-58.449 58.449-58.449h443.1c32.223 0 58.449 26.227 58.449 58.449v396.46c0 32.223-26.203 58.426-58.426 58.426zm-443.12-466.67c-6.4883 0-11.785 5.2969-11.785 11.785v396.46c0 6.4883 5.2734 11.762 11.762 11.762h443.15c6.4883 0 11.762-5.2734 11.762-11.762v-396.46c0-6.4883-5.2969-11.785-11.785-11.785zm478.22 93.336h-513.33c-12.879 0-23.332-10.453-23.332-23.332 0-12.879 10.453-23.332 23.332-23.332h513.33c12.902 0 23.332 10.453 23.332 23.332 0 12.879-10.43 23.332-23.332 23.332zm-420-70c-12.879 0-23.332-10.453-23.332-23.332v-70c0-12.879 10.453-23.332 23.332-23.332 12.879 0 23.332 10.453 23.332 23.332v70c0 12.879-10.453 23.332-23.332 23.332zm326.66 0c-12.902 0-23.332-10.453-23.332-23.332v-70c0-12.879 10.43-23.332 23.332-23.332 12.902 0 23.332 10.453 23.332 23.332v70c0 12.879-10.43 23.332-23.332 23.332z"/>
  <path d="m233.33 443.33c0 12.887-10.445 23.336-23.332 23.336s-23.332-10.449-23.332-23.336 10.445-23.332 23.332-23.332 23.332 10.445 23.332 23.332"/>
  <path d="m233.33 350c0 12.887-10.445 23.332-23.332 23.332s-23.332-10.445-23.332-23.332 10.445-23.332 23.332-23.332 23.332 10.445 23.332 23.332"/>
  <path d="m303.33 443.33c0 12.887-10.445 23.336-23.332 23.336s-23.332-10.449-23.332-23.336 10.445-23.332 23.332-23.332 23.332 10.445 23.332 23.332"/>
  <path d="m303.33 350c0 12.887-10.445 23.332-23.332 23.332s-23.332-10.445-23.332-23.332 10.445-23.332 23.332-23.332 23.332 10.445 23.332 23.332"/>
  <path d="m303.33 256.67c0 12.887-10.445 23.332-23.332 23.332s-23.332-10.445-23.332-23.332 10.445-23.336 23.332-23.336 23.332 10.449 23.332 23.336"/>
  <path d="m443.33 443.33c0 12.887-10.445 23.336-23.332 23.336s-23.332-10.449-23.332-23.336 10.445-23.332 23.332-23.332 23.332 10.445 23.332 23.332"/>
  <path d="m443.33 350c0 12.887-10.445 23.332-23.332 23.332s-23.332-10.445-23.332-23.332 10.445-23.332 23.332-23.332 23.332 10.445 23.332 23.332"/>
  <path d="m443.33 256.67c0 12.887-10.445 23.332-23.332 23.332s-23.332-10.445-23.332-23.332 10.445-23.336 23.332-23.336 23.332 10.449 23.332 23.336"/>
  <path d="m513.33 350c0 12.887-10.445 23.332-23.332 23.332s-23.332-10.445-23.332-23.332 10.445-23.332 23.332-23.332 23.332 10.445 23.332 23.332"/>
  <path d="m513.33 256.67c0 12.887-10.445 23.332-23.332 23.332s-23.332-10.445-23.332-23.332 10.445-23.336 23.332-23.336 23.332 10.449 23.332 23.336"/>
  <path d="m373.33 443.33c0 12.887-10.445 23.336-23.332 23.336s-23.332-10.449-23.332-23.336 10.445-23.332 23.332-23.332 23.332 10.445 23.332 23.332"/>
  <path d="m373.33 350c0 12.887-10.445 23.332-23.332 23.332s-23.332-10.445-23.332-23.332 10.445-23.332 23.332-23.332 23.332 10.445 23.332 23.332"/>
  <path d="m373.33 256.67c0 12.887-10.445 23.332-23.332 23.332s-23.332-10.445-23.332-23.332 10.445-23.336 23.332-23.336 23.332 10.449 23.332 23.336"/>
 </g>
</svg>
